<svg xmlns="http://www.w3.org/2000/svg" width="1024" height="1024" viewBox="0 0 1024 1024">
<g>
<path d="M 486.16 512.25 L 408.50 590.00 L 336.00 590.00 C265.86,589.99 263.40,589.93 260.30,588.04 C254.87,584.73 252.52,577.79 255.10,572.68 C255.71,571.48 290.47,536.19 332.35,494.25 L 408.50 418.00 L 487.81 418.00 C550.99,418.00 566.97,417.75 566.37,416.75 C565.89,415.95 566.25,416.02 567.37,416.92 C569.50,418.65 568.84,424.31 565.79,430.50 C564.51,433.10 536.60,461.75 486.16,512.25 ZM 814.64 820.99 C805.47,822.14 802.00,822.12 793.54,820.89 C764.19,816.61 740.58,796.36 731.88,768.00 C728.93,758.38 728.65,740.03 731.29,730.00 C738.10,704.22 758.83,683.52 785.00,676.37 C795.27,673.57 816.24,673.81 826.00,676.85 C849.65,684.22 869.07,702.24 876.54,723.74 C891.91,767.99 861.95,815.05 814.64,820.99 ZM 236.17 817.35 C233.35,819.90 213.00,819.76 210.65,817.17 C209.15,815.51 209.00,809.22 209.00,747.37 C209.00,695.84 209.29,679.11 210.20,678.20 C212.13,676.27 269.80,676.54 277.37,678.51 C292.22,682.38 302.64,690.44 308.74,702.79 C312.48,710.37 312.50,710.46 312.50,722.95 C312.50,735.12 312.40,735.70 309.19,742.26 C302.72,755.50 290.35,764.50 274.42,767.55 C270.24,768.35 261.08,769.00 254.07,769.00 C242.98,769.00 241.09,769.24 239.65,770.83 C238.22,772.41 238.00,775.56 238.00,794.17 C238.00,813.75 237.83,815.84 236.17,817.35 ZM 626.17 817.35 C623.57,819.70 602.91,819.77 600.57,817.43 C599.17,816.03 599.00,808.32 599.00,747.63 C599.00,695.90 599.29,679.11 600.20,678.20 C602.12,676.28 658.55,676.57 666.90,678.54 C681.61,682.01 693.36,691.16 699.29,703.78 C702.04,709.64 702.49,711.79 702.80,720.50 C703.08,728.34 702.74,731.82 701.23,736.60 C698.67,744.72 692.78,753.38 686.79,757.85 C681.92,761.49 680.12,764.73 681.60,767.19 C682.03,767.91 689.27,778.02 697.69,789.65 C718.18,817.96 718.19,819.00 697.74,819.00 C696.66,819.00 695.68,819.01 694.79,819.02 C691.14,819.06 688.95,819.08 687.06,818.32 C683.77,816.99 681.44,813.26 673.95,803.00 C669.33,796.67 661.83,786.40 657.28,780.16 L 649.00 768.83 L 649.00 743.00 L 653.32 743.00 C659.72,743.00 667.93,738.52 670.73,733.50 C674.95,725.94 673.26,713.16 667.32,707.79 C663.06,703.93 658.53,703.00 644.07,703.00 C631.25,703.00 629.98,703.16 629.04,704.93 C628.36,706.20 628.00,725.68 628.00,761.28 C628.00,812.72 627.90,815.78 626.17,817.35 ZM 437.38 817.13 C435.78,818.90 433.35,819.00 390.00,819.00 C347.01,819.00 344.21,818.89 342.65,817.17 C341.15,815.51 341.00,809.27 341.00,748.11 C341.00,703.67 341.35,680.21 342.04,678.93 C343.04,677.07 344.61,677.00 388.41,677.00 C429.38,677.00 433.89,677.16 435.13,678.65 C437.02,680.94 437.01,699.08 435.11,701.37 C433.91,702.81 430.27,703.00 404.10,703.00 C378.88,703.00 374.11,703.23 372.22,704.56 C370.15,706.01 370.00,706.87 370.00,717.50 C370.00,718.29 370.00,719.03 369.99,719.74 C369.97,724.78 369.95,727.76 371.41,729.51 C373.50,732.03 378.65,732.03 391.20,732.00 C392.42,732.00 393.71,732.00 395.07,732.00 C396.10,732.00 397.09,732.00 398.03,732.00 C410.82,731.99 415.82,731.98 417.77,734.42 C419.03,735.99 419.02,738.57 419.00,742.80 C419.00,743.29 419.00,743.80 419.00,744.33 C419.00,744.74 419.00,745.14 419.00,745.52 C419.01,750.00 419.02,752.73 417.69,754.40 C415.60,757.01 410.24,757.01 396.49,757.00 C395.74,757.00 394.96,757.00 394.15,757.00 C375.23,757.00 373.16,757.17 371.65,758.83 C370.28,760.34 370.00,763.02 370.00,774.39 C370.00,781.95 370.47,789.00 371.04,790.07 C372.02,791.91 373.45,792.00 402.79,792.01 C425.51,792.03 434.15,792.36 436.00,793.29 C438.39,794.50 438.51,795.00 438.79,804.91 C439.02,813.50 438.79,815.58 437.38,817.13 ZM 789.67 791.98 C794.47,793.67 797.44,793.99 806.50,793.75 C816.43,793.49 818.15,793.16 824.18,790.32 C840.93,782.43 850.00,767.55 850.00,747.98 C850.00,733.39 845.61,722.59 836.06,713.65 C820.64,699.23 797.26,697.27 779.27,708.90 C765.00,718.13 757.38,736.48 760.03,755.25 C762.48,772.57 773.55,786.29 789.67,791.98 ZM 528.00 817.00 C526.25,818.75 524.67,819.00 515.19,819.00 C507.44,819.00 503.83,818.60 502.44,817.58 C500.57,816.21 500.48,814.14 500.00,760.54 C499.57,712.56 499.29,704.80 498.00,703.98 C497.17,703.46 487.91,703.02 477.40,703.02 C476.42,703.01 475.48,703.01 474.58,703.02 C463.05,703.02 458.30,703.02 456.34,700.68 C454.97,699.04 454.98,696.24 455.00,691.49 C455.00,690.96 455.00,690.40 455.00,689.83 C455.00,681.88 455.30,680.04 456.83,678.65 C458.49,677.16 464.02,677.00 515.63,677.00 C558.61,677.00 572.89,677.29 573.80,678.20 C574.58,678.98 575.00,683.09 575.00,690.00 C575.00,696.91 574.58,701.02 573.80,701.80 C572.95,702.65 566.90,703.00 552.96,703.00 C535.19,703.00 533.15,703.18 531.65,704.83 C530.16,706.48 530.00,711.83 530.00,760.83 C530.00,813.67 529.95,815.05 528.00,817.00 ZM 239.72 741.24 C241.28,742.97 242.74,743.11 256.14,742.82 C270.63,742.50 270.89,742.46 275.08,739.50 C280.94,735.35 283.37,730.30 283.25,722.46 C283.15,715.79 281.64,711.86 277.83,708.30 C273.15,703.93 268.98,703.00 254.07,703.00 C241.25,703.00 239.98,703.16 239.04,704.93 C238.44,706.04 238.00,713.83 238.00,723.11 C238.00,737.05 238.24,739.61 239.72,741.24 Z" fill="rgb(137,138,142)"/>
<path d="M 568.50 422.21 C568.82,419.72 568.46,417.81 567.37,416.92 C566.72,416.40 566.33,416.16 566.20,416.20 L 472.36 322.00 C420.03,269.48 376.71,225.52 376.11,224.32 C373.00,218.18 375.97,208.82 382.24,204.99 C385.43,203.05 387.46,203.01 477.60,203.00 C568.42,203.00 569.71,203.03 571.50,205.00 C572.50,206.10 572.82,207.00 572.21,207.00 C571.61,207.00 570.84,206.55 570.50,206.00 C570.16,205.45 569.46,205.00 568.94,205.00 C568.36,205.00 568.00,245.43 568.00,311.00 C568.00,370.32 568.38,417.00 568.87,417.00 C569.44,417.00 569.17,419.33 568.50,422.21 ZM 560.13 417.52 C550.80,417.89 529.66,418.00 487.81,418.00 L 411.54 418.00 L 488.00 417.75 ZM 402.15 424.35 L 332.35 494.25 C292.19,534.47 258.58,568.57 255.35,572.37 C255.38,572.31 255.41,572.26 255.44,572.20 C256.23,570.72 290.99,535.41 332.69,493.75 ZM 558.04 439.25 C562.80,434.21 565.42,431.25 565.79,430.50 C565.83,430.41 565.88,430.32 565.92,430.23 C565.80,430.51 565.67,430.78 565.55,431.02 C565.29,431.53 562.62,434.45 558.04,439.25 ZM 254.37 579.89 C255.13,583.11 257.21,586.16 260.30,588.04 C257.12,586.10 255.06,583.11 254.37,579.89 Z" fill="rgb(169,32,37)"/>
<path d="M 569.18 418.01 C569.19,417.37 569.10,417.00 568.87,417.00 C568.38,417.00 568.00,370.32 568.00,311.00 C568.00,245.43 568.36,205.00 568.94,205.00 C569.46,205.00 570.16,205.45 570.50,206.00 C570.84,206.55 571.61,207.00 572.21,207.00 C572.82,207.00 572.50,206.10 571.50,205.00 C569.71,203.03 568.42,203.00 477.60,203.00 L 569.52 203.00 L 667.11 300.75 C754.67,388.45 764.93,399.07 767.01,404.00 C768.28,407.02 769.36,411.30 769.41,413.50 L 769.50 417.50 L 669.34 417.75 ZM 171.32 817.85 C168.60,819.28 150.31,819.26 147.33,817.81 C146.13,817.24 144.89,815.69 144.56,814.37 C144.23,813.05 143.99,795.23 144.02,774.76 L 144.09 737.55 L 157.92 723.62 C167.87,713.60 172.21,709.87 173.38,710.31 C174.85,710.88 175.00,715.86 174.98,762.72 C174.98,791.20 174.64,815.00 174.23,815.60 C173.83,816.21 172.52,817.22 171.32,817.85 ZM 160.08 696.39 C153.07,703.32 146.88,709.00 146.33,709.00 C144.26,709.00 144.00,707.29 144.00,693.33 L 144.00 679.00 L 157.42 679.00 C164.80,679.00 171.50,679.25 172.31,679.56 C175.10,680.64 172.80,683.79 160.08,696.39 Z" fill="rgb(222,31,45)"/>
<path d="M 0.00 512.00 L 0.00 0.00 L 512.00 0.00 L 1024.00 0.00 L 1024.00 512.00 L 1024.00 1024.00 L 512.00 1024.00 L 0.00 1024.00 L 0.00 512.00 ZM 814.64 820.99 C861.95,815.05 891.91,767.99 876.54,723.74 C869.07,702.24 849.65,684.22 826.00,676.85 C816.24,673.81 795.27,673.57 785.00,676.37 C758.83,683.52 738.10,704.22 731.29,730.00 C728.65,740.03 728.93,758.38 731.88,768.00 C740.58,796.36 764.19,816.61 793.54,820.89 C802.00,822.12 805.47,822.14 814.64,820.99 ZM 171.32 817.85 C172.52,817.22 173.83,816.21 174.23,815.60 C174.64,815.00 174.98,791.20 174.98,762.72 C175.00,715.86 174.85,710.88 173.38,710.31 C172.21,709.87 167.87,713.60 157.92,723.62 L 144.09 737.55 L 144.02 774.76 C143.99,795.23 144.23,813.05 144.56,814.37 C144.89,815.69 146.13,817.24 147.33,817.81 C150.31,819.26 168.60,819.28 171.32,817.85 ZM 236.17 817.35 C237.83,815.84 238.00,813.75 238.00,794.17 C238.00,775.56 238.22,772.41 239.65,770.83 C241.09,769.24 242.98,769.00 254.07,769.00 C261.08,769.00 270.24,768.35 274.42,767.55 C290.35,764.50 302.72,755.50 309.19,742.26 C312.40,735.70 312.50,735.12 312.50,722.95 C312.50,710.46 312.48,710.37 308.74,702.79 C302.64,690.44 292.22,682.38 277.37,678.51 C269.80,676.54 212.13,676.27 210.20,678.20 C209.29,679.11 209.00,695.84 209.00,747.37 C209.00,809.22 209.15,815.51 210.65,817.17 C213.00,819.76 233.35,819.90 236.17,817.35 ZM 437.38 817.13 C438.79,815.58 439.02,813.50 438.79,804.91 C438.51,795.00 438.39,794.50 436.00,793.29 C434.15,792.36 425.51,792.03 402.79,792.01 C373.45,792.00 372.02,791.91 371.04,790.07 C370.47,789.00 370.00,781.95 370.00,774.39 C370.00,763.02 370.28,760.34 371.65,758.83 C373.16,757.17 375.23,757.00 394.15,757.00 C419.83,757.00 419.00,757.42 419.00,744.33 C419.00,731.45 420.08,732.00 395.07,732.00 C368.57,732.00 370.00,732.83 370.00,717.50 C370.00,706.87 370.15,706.01 372.22,704.56 C374.11,703.23 378.88,703.00 404.10,703.00 C430.27,703.00 433.91,702.81 435.11,701.37 C437.01,699.08 437.02,680.94 435.13,678.65 C433.89,677.16 429.38,677.00 388.41,677.00 C344.61,677.00 343.04,677.07 342.04,678.93 C341.35,680.21 341.00,703.67 341.00,748.11 C341.00,809.27 341.15,815.51 342.65,817.17 C344.21,818.89 347.01,819.00 390.00,819.00 C433.35,819.00 435.78,818.90 437.38,817.13 ZM 528.00 817.00 C529.95,815.05 530.00,813.67 530.00,760.83 C530.00,711.83 530.16,706.48 531.65,704.83 C533.15,703.18 535.19,703.00 552.96,703.00 C566.90,703.00 572.95,702.65 573.80,701.80 C574.58,701.02 575.00,696.91 575.00,690.00 C575.00,683.09 574.58,678.98 573.80,678.20 C572.89,677.29 558.61,677.00 515.63,677.00 C464.02,677.00 458.49,677.16 456.83,678.65 C455.30,680.04 455.00,681.88 455.00,689.83 C455.00,703.60 453.97,703.00 477.40,703.02 C487.91,703.02 497.17,703.46 498.00,703.98 C499.29,704.80 499.57,712.56 500.00,760.54 C500.48,814.14 500.57,816.21 502.44,817.58 C503.83,818.60 507.44,819.00 515.19,819.00 C524.67,819.00 526.25,818.75 528.00,817.00 ZM 626.17 817.35 C627.90,815.78 628.00,812.72 628.00,761.28 C628.00,725.68 628.36,706.20 629.04,704.93 C629.98,703.16 631.25,703.00 644.07,703.00 C658.53,703.00 663.06,703.93 667.32,707.79 C673.26,713.16 674.95,725.94 670.73,733.50 C667.93,738.52 659.72,743.00 653.32,743.00 L 649.00 743.00 L 649.00 755.91 L 649.00 768.83 L 657.28 780.16 C661.83,786.40 669.33,796.67 673.95,803.00 C686.76,820.54 684.47,819.00 697.74,819.00 C718.19,819.00 718.18,817.96 697.69,789.65 C689.27,778.02 682.03,767.91 681.60,767.19 C680.12,764.73 681.92,761.49 686.79,757.85 C692.78,753.38 698.67,744.72 701.23,736.60 C702.74,731.82 703.08,728.34 702.80,720.50 C702.49,711.79 702.04,709.64 699.29,703.78 C693.36,691.16 681.61,682.01 666.90,678.54 C658.55,676.57 602.12,676.28 600.20,678.20 C599.29,679.11 599.00,695.90 599.00,747.63 C599.00,808.32 599.17,816.03 600.57,817.43 C602.91,819.77 623.57,819.70 626.17,817.35 ZM 160.08 696.39 C172.80,683.79 175.10,680.64 172.31,679.56 C171.50,679.25 164.80,679.00 157.42,679.00 L 144.00 679.00 L 144.00 693.33 C144.00,707.29 144.26,709.00 146.33,709.00 C146.88,709.00 153.07,703.32 160.08,696.39 ZM 486.16 512.25 C536.60,461.75 564.51,433.10 565.79,430.50 C566.87,428.30 568.08,424.59 568.47,422.25 L 569.17 418.01 L 669.34 417.75 L 769.50 417.50 L 769.41 413.50 C769.36,411.30 768.28,407.02 767.01,404.00 C764.93,399.07 754.67,388.45 667.11,300.75 L 569.52 203.00 L 477.51 203.00 C387.46,203.01 385.43,203.05 382.24,204.99 C375.97,208.82 373.00,218.18 376.11,224.32 C376.71,225.52 420.03,269.48 472.36,322.00 L 567.50 417.50 L 488.00 417.75 L 408.50 418.01 L 332.69 493.75 C290.99,535.41 256.23,570.72 255.44,572.20 C252.50,577.73 254.60,584.56 260.30,588.04 C263.40,589.93 265.86,589.99 336.00,590.00 L 408.50 590.00 L 486.16 512.25 ZM 789.67 791.98 C773.55,786.29 762.48,772.57 760.03,755.25 C757.38,736.48 765.00,718.13 779.27,708.90 C797.26,697.27 820.64,699.23 836.06,713.65 C845.61,722.59 850.00,733.39 850.00,747.98 C850.00,767.55 840.93,782.43 824.18,790.32 C818.15,793.16 816.43,793.49 806.50,793.75 C797.44,793.99 794.47,793.67 789.67,791.98 ZM 239.72 741.24 C238.24,739.61 238.00,737.05 238.00,723.11 C238.00,713.83 238.44,706.04 239.04,704.93 C239.98,703.16 241.25,703.00 254.07,703.00 C268.98,703.00 273.15,703.93 277.83,708.30 C281.64,711.86 283.15,715.79 283.25,722.46 C283.37,730.30 280.94,735.35 275.08,739.50 C270.89,742.46 270.63,742.50 256.14,742.82 C242.74,743.11 241.28,742.97 239.72,741.24 Z" fill="rgb(242,242,242)"/>
</g>
</svg>